<?xml version="1.0" standalone="no"?><!DOCTYPE svg PUBLIC "-//W3C//DTD SVG 1.1//EN" "http://www.w3.org/Graphics/SVG/1.1/DTD/svg11.dtd"><svg t="1629615705186" class="icon" viewBox="0 0 1194 1024" version="1.1" xmlns="http://www.w3.org/2000/svg" p-id="829" xmlns:xlink="http://www.w3.org/1999/xlink" width="233.203125" height="200"><defs><style type="text/css"></style></defs><path d="M659.707416 0.063122c-41.285026 1.023596-83.849546 12.453747-123.428579 29.001877-78.987467 33.09626-151.406861 87.77333-194.568479 148.591973l-0.341199 0.511798c-34.119856-6.482773-69.092708-9.724159-102.359568-5.032679-38.981935 5.629776-75.319582 20.983711-104.065561 50.497387-40.687928 41.796824-49.473791 99.118182-52.03278 156.43954C80.52286 437.479676 85.29964 498.554218 85.29964 554.85198a42.64982 42.64982 0 0 0 0.341199 5.800376C89.394023 953.883696 458.229666 1022.720505 469.14802 1024l264.258285-0.682397c3.753184-0.682397 376.68321-69.860405 376.68321-468.465623V512.20216h-1.535394a254.022328 254.022328 0 0 0-45.805907-144.241691 261.016898 261.016898 0 0 0-211.116608-111.31603c5.032679-84.446644-10.065358-171.793475-76.257879-221.949663V34.524176c-34.290455-25.931091-74.381286-35.399351-115.666311-34.461054z m-0.852997 86.152636c26.698787-0.852996 49.303192 4.606181 64.998326 16.462831 31.560867 23.883899 48.364896 84.276044 42.820419 156.26894a42.64982 42.64982 0 0 0 0.170599 11.515451c-21.41021 7.16517-42.56452 16.206932-62.098138 29.513676a372.07703 372.07703 0 0 0-83.508347 80.181661 252.657534 252.657534 0 0 0-56.638961-91.697113c-34.461055-34.631654-81.887654-63.292333-133.749835-84.105445 33.608058-36.422946 85.29964-74.210687 138.441315-96.473892a260.5051 260.5051 0 0 1 89.564622-21.666109zM294.454357 257.156237c14.500939 0.938296 29.854874 3.326686 45.805907 6.99457 63.633531 14.671538 130.508449 50.753286 163.945908 84.446644A174.608363 174.608363 0 0 1 549.58558 512.20216H169.575684c-1.194195-45.891206-3.156087-90.673517-1.450094-128.461258 2.132491-49.473791 12.112549-84.276044 27.978282-100.653575v-0.170599c19.107119-19.618917 54.762369-28.745979 98.265186-25.760491z m553.935862 84.276044c55.444766 0 110.463034 26.442888 144.66819 75.319582 20.642513 29.513675 30.281372 62.695235 30.451971 95.450297h-382.142387c26.698787-58.430253 72.675293-115.495713 111.060131-141.426803a171.196377 171.196377 0 0 1 95.962095-29.343076zM172.390572 597.5018h850.522711c-24.225098 288.227483-291.810068 339.663166-296.672148 341.19856l-249.586747 0.682397c-11.94195-2.217791-280.038718-53.653474-304.263816-341.880957z" fill="#FF9900" p-id="830"></path></svg>